<svg width="367" height="479" viewBox="0 0 367 479" fill="none" xmlns="http://www.w3.org/2000/svg">
<path fill-rule="evenodd" clip-rule="evenodd" d="M97.5 82.4545H24.375L21.6667 82.4545V82.3035C9.4793 80.9363 0 70.4506 0 57.718C0 44.0565 10.9131 32.9816 24.375 32.9816C25.2906 32.9816 26.1943 33.0329 27.0837 33.1326C27.0834 33.0824 27.0833 33.0322 27.0833 32.9819C27.0833 14.7665 41.6341 0 59.5833 0C72.134 0 83.023 7.21967 88.4379 17.7899C91.3142 16.944 94.3549 16.4907 97.5 16.4907C115.449 16.4907 130 31.2572 130 49.4726C130 67.688 115.449 82.4545 97.5 82.4545Z" fill="url(#paint0_linear_578_132)"/>
<path d="M30.3333 60.6667V78M30.3333 95.3333V78M30.3333 78H47.6667M30.3333 78H13M30.3333 78L17.3333 65M30.3333 78L43.3333 91M30.3333 78L17.3333 91M30.3333 78L43.3333 65" stroke="url(#paint1_linear_578_132)" stroke-width="4.33333" stroke-linecap="round" stroke-linejoin="round"/>
<path d="M91 43.3333V60.6667M91 78V60.6667M91 60.6667H108.333M91 60.6667H73.6666M91 60.6667L78 47.6667M91 60.6667L104 73.6667M91 60.6667L78 73.6667M91 60.6667L104 47.6667" stroke="url(#paint2_linear_578_132)" stroke-width="4.33333" stroke-linecap="round" stroke-linejoin="round"/>
<path d="M104 91V108.333M104 125.667V108.333M104 108.333H121.333M104 108.333H86.6666M104 108.333L91 95.3333M104 108.333L117 121.333M104 108.333L91 121.333M104 108.333L117 95.3333" stroke="url(#paint3_linear_578_132)" stroke-width="4.33333" stroke-linecap="round" stroke-linejoin="round"/>
<g filter="url(#filter0_d_578_132)">
<ellipse cx="65" cy="245.5" rx="65" ry="69.5" fill="url(#paint4_linear_578_132)"/>
</g>
<g filter="url(#filter1_d_578_132)">
<circle cx="237.2" cy="372.2" r="46.2" fill="url(#paint5_linear_578_132)"/>
<path fill-rule="evenodd" clip-rule="evenodd" d="M290 434.9V434.9H213V434.749C200.625 433.381 191 422.889 191 410.15C191 396.481 202.081 385.4 215.75 385.4C216.68 385.4 217.597 385.451 218.5 385.551C218.5 385.501 218.5 385.45 218.5 385.4C218.5 367.175 233.275 352.4 251.5 352.4C264.244 352.4 275.3 359.624 280.798 370.2C283.719 369.353 286.807 368.9 290 368.9C308.225 368.9 323 383.674 323 401.9C323 420.125 308.225 434.9 290 434.9Z" fill="url(#paint6_linear_578_132)"/>
</g>
<g filter="url(#filter2_d_578_132)">
<path fill-rule="evenodd" clip-rule="evenodd" d="M204.328 168.229C241.148 168.229 270.997 138.834 270.997 102.573C270.997 95.3872 269.825 88.471 267.659 81.9998C298.092 88.081 321 114.578 321 146.344C321 182.605 291.151 212 254.33 212C224.807 212 199.765 193.101 191 166.917C195.306 167.777 199.763 168.229 204.328 168.229Z" fill="url(#paint7_linear_578_132)"/>
</g>
<defs>
<filter id="filter0_d_578_132" x="0" y="176" width="176.333" height="185.333" filterUnits="userSpaceOnUse" color-interpolation-filters="sRGB">
<feFlood flood-opacity="0" result="BackgroundImageFix"/>
<feColorMatrix in="SourceAlpha" type="matrix" values="0 0 0 0 0 0 0 0 0 0 0 0 0 0 0 0 0 0 127 0" result="hardAlpha"/>
<feOffset dx="23.1667" dy="23.1667"/>
<feGaussianBlur stdDeviation="11.5833"/>
<feColorMatrix type="matrix" values="0 0 0 0 0 0 0 0 0 0 0 0 0 0 0 0 0 0 0.25 0"/>
<feBlend mode="normal" in2="BackgroundImageFix" result="effect1_dropShadow_578_132"/>
<feBlend mode="normal" in="SourceGraphic" in2="effect1_dropShadow_578_132" result="shape"/>
</filter>
<filter id="filter1_d_578_132" x="191" y="315" width="176" height="174" filterUnits="userSpaceOnUse" color-interpolation-filters="sRGB">
<feFlood flood-opacity="0" result="BackgroundImageFix"/>
<feColorMatrix in="SourceAlpha" type="matrix" values="0 0 0 0 0 0 0 0 0 0 0 0 0 0 0 0 0 0 127 0" result="hardAlpha"/>
<feOffset dx="22" dy="22"/>
<feGaussianBlur stdDeviation="11"/>
<feColorMatrix type="matrix" values="0 0 0 0 0 0 0 0 0 0 0 0 0 0 0 0 0 0 0.25 0"/>
<feBlend mode="normal" in2="BackgroundImageFix" result="effect1_dropShadow_578_132"/>
<feBlend mode="normal" in="SourceGraphic" in2="effect1_dropShadow_578_132" result="shape"/>
</filter>
<filter id="filter2_d_578_132" x="191" y="81.9998" width="173.334" height="173.333" filterUnits="userSpaceOnUse" color-interpolation-filters="sRGB">
<feFlood flood-opacity="0" result="BackgroundImageFix"/>
<feColorMatrix in="SourceAlpha" type="matrix" values="0 0 0 0 0 0 0 0 0 0 0 0 0 0 0 0 0 0 127 0" result="hardAlpha"/>
<feOffset dx="21.6667" dy="21.6667"/>
<feGaussianBlur stdDeviation="10.8333"/>
<feColorMatrix type="matrix" values="0 0 0 0 0 0 0 0 0 0 0 0 0 0 0 0 0 0 0.25 0"/>
<feBlend mode="normal" in2="BackgroundImageFix" result="effect1_dropShadow_578_132"/>
<feBlend mode="normal" in="SourceGraphic" in2="effect1_dropShadow_578_132" result="shape"/>
</filter>
<linearGradient id="paint0_linear_578_132" x1="32.7257" y1="50.5721" x2="70.8318" y2="97.5089" gradientUnits="userSpaceOnUse">
<stop stop-color="white"/>
<stop offset="1" stop-color="#BDE0F5"/>
</linearGradient>
<linearGradient id="paint1_linear_578_132" x1="30.3333" y1="60.6667" x2="30.3333" y2="95.3333" gradientUnits="userSpaceOnUse">
<stop stop-color="#94CCFD"/>
<stop offset="1" stop-color="#4EA8F4"/>
</linearGradient>
<linearGradient id="paint2_linear_578_132" x1="91" y1="43.3333" x2="91" y2="78" gradientUnits="userSpaceOnUse">
<stop stop-color="#94CCFD"/>
<stop offset="1" stop-color="#4EA8F4"/>
</linearGradient>
<linearGradient id="paint3_linear_578_132" x1="104" y1="91" x2="104" y2="125.667" gradientUnits="userSpaceOnUse">
<stop stop-color="#94CCFD"/>
<stop offset="1" stop-color="#4EA8F4"/>
</linearGradient>
<linearGradient id="paint4_linear_578_132" x1="0" y1="176" x2="138.689" y2="305.709" gradientUnits="userSpaceOnUse">
<stop stop-color="#FFE975"/>
<stop offset="1" stop-color="#FF9900"/>
</linearGradient>
<linearGradient id="paint5_linear_578_132" x1="191" y1="326" x2="233.9" y2="368.9" gradientUnits="userSpaceOnUse">
<stop stop-color="#FAE26F"/>
<stop offset="1" stop-color="#F7BC3D"/>
</linearGradient>
<linearGradient id="paint6_linear_578_132" x1="224.229" y1="403" x2="262.237" y2="450.51" gradientUnits="userSpaceOnUse">
<stop stop-color="white"/>
<stop offset="1" stop-color="#BDE0F5"/>
</linearGradient>
<linearGradient id="paint7_linear_578_132" x1="268.219" y1="161.334" x2="298.308" y2="191.887" gradientUnits="userSpaceOnUse">
<stop stop-color="#FBDF00"/>
<stop offset="1" stop-color="#FAAE00"/>
</linearGradient>
</defs>
</svg>
