<svg width="30" height="30" viewBox="0 0 30 30" fill="none" xmlns="http://www.w3.org/2000/svg">
<path d="M13.3839 8.38388C13.872 7.89573 13.872 7.10427 13.3839 6.61612C12.8957 6.12796 12.1043 6.12796 11.6161 6.61612L13.3839 8.38388ZM5 15L4.11612 14.1161C3.62796 14.6043 3.62796 15.3957 4.11612 15.8839L5 15ZM11.6161 23.3839C12.1043 23.872 12.8957 23.872 13.3839 23.3839C13.872 22.8957 13.872 22.1043 13.3839 21.6161L11.6161 23.3839ZM23.75 16.25C24.4404 16.25 25 15.6904 25 15C25 14.3096 24.4404 13.75 23.75 13.75V16.25ZM11.6161 6.61612L4.11612 14.1161L5.88388 15.8839L13.3839 8.38388L11.6161 6.61612ZM4.11612 15.8839L11.6161 23.3839L13.3839 21.6161L5.88388 14.1161L4.11612 15.8839ZM5 16.25H23.75V13.75H5V16.25Z" fill="white"/>
</svg>
