<svg width="34" height="34" viewBox="0 0 34 34" fill="none" xmlns="http://www.w3.org/2000/svg">
<path d="M7.79167 27.625C11.0972 26.2083 13.2222 25.0278 14.1667 24.0833C15.5833 22.6667 11.3333 22.6667 11.3333 15.5833C11.3333 10.8611 13.2222 8.5 17 8.5C20.7778 8.5 22.6667 10.8611 22.6667 15.5833C22.6667 22.6667 18.4167 22.6667 19.8333 24.0833C20.7778 25.0278 22.9028 26.2083 26.2083 27.625" fill="white"/>
<path d="M7.79167 27.625C11.0972 26.2083 13.2222 25.0278 14.1667 24.0833C15.5833 22.6667 11.3333 22.6667 11.3333 15.5833C11.3333 10.8611 13.2222 8.5 17 8.5C20.7778 8.5 22.6667 10.8611 22.6667 15.5833C22.6667 22.6667 18.4167 22.6667 19.8333 24.0833C20.7778 25.0278 22.9028 26.2083 26.2083 27.625" stroke="white" stroke-width="2" stroke-linecap="round"/>
<path d="M17 31.1667C24.824 31.1667 31.1667 24.824 31.1667 17C31.1667 9.17598 24.824 2.83334 17 2.83334C9.17596 2.83334 2.83333 9.17598 2.83333 17C2.83333 24.824 9.17596 31.1667 17 31.1667Z" stroke="white" stroke-width="2" stroke-linecap="square"/>
<line x1="10.0741" y1="28.7222" x2="23.9259" y2="28.7222" stroke="white" stroke-width="3"/>
</svg>
